<svg width="32" height="32" viewBox="0 0 32 32" fill="none" xmlns="http://www.w3.org/2000/svg">
<path d="M21.5996 9.9248C21.7639 9.9248 21.8659 9.97331 21.9463 10.0537C22.0265 10.134 22.0751 10.2355 22.0752 10.3994C22.0752 10.5636 22.0266 10.6657 21.9463 10.7461L16.6924 16L17.0459 16.3535L21.9463 21.2529C22.0267 21.3333 22.0752 21.4355 22.0752 21.5996C22.0752 21.7639 22.0267 21.8659 21.9463 21.9463C21.8659 22.0267 21.7639 22.0752 21.5996 22.0752C21.4355 22.0752 21.3333 22.0267 21.2529 21.9463L16.3535 17.0459L16 16.6924L10.7461 21.9463C10.6657 22.0266 10.5636 22.0752 10.3994 22.0752C10.2355 22.0751 10.134 22.0265 10.0537 21.9463C9.97331 21.8659 9.9248 21.7639 9.9248 21.5996C9.92484 21.4355 9.97334 21.3333 10.0537 21.2529L15.3066 16L14.9531 15.6465L10.0537 10.7461C9.97331 10.6657 9.9248 10.5637 9.9248 10.3994C9.92488 10.2354 9.97337 10.134 10.0537 10.0537C10.134 9.97337 10.2354 9.92488 10.3994 9.9248C10.5637 9.9248 10.6657 9.97331 10.7461 10.0537L15.6465 14.9531L16 15.3066L21.2529 10.0537C21.3333 9.97334 21.4355 9.92484 21.5996 9.9248Z" fill="white" stroke="#02060A"/>
</svg>
